<?xml version="1.0" encoding="UTF-8"?>
<svg version="1.1" xmlns="http://www.w3.org/2000/svg" width="177" height="250">
<path d="M0 0 C3.57425413 2.3212442 6.03260867 4.11727238 8.41796875 7.6953125 C9.07257688 16.13062851 5.62598412 25.00700613 3.38577271 33.05322266 C2.12213074 37.59440407 0.88518894 42.14284014 -0.3515625 46.69140625 C-0.614496 47.65698456 -0.8774295 48.62256287 -1.14833069 49.61740112 C-3.96877392 60.02856487 -6.58124997 70.49049638 -9.20480347 80.9526062 C-30.07820202 164.03103113 -30.07820202 164.03103113 -45.18359375 193.80078125 C-46.72703822 196.45967855 -46.72703822 196.45967855 -46.58203125 198.6953125 C-45.94402588 199.01169678 -45.30602051 199.32808105 -44.64868164 199.65405273 C-41.64614772 201.1446705 -38.64510107 202.63824488 -35.64453125 204.1328125 C-34.55019775 204.67760254 -33.45586426 205.22239258 -32.32836914 205.78369141 C-26.69946136 208.59711429 -21.10556031 211.45350973 -15.57470703 214.45507812 C4.39487953 225.82378775 4.39487953 225.82378775 26.35546875 226.6328125 C30.30151395 225.04004516 32.70263716 222.93619214 35.41796875 219.6953125 C37.06796875 220.3553125 38.71796875 221.0153125 40.41796875 221.6953125 C40.0770991 227.60124971 38.33046453 230.75404354 34.29296875 234.8828125 C33.83148438 235.39005859 33.37 235.89730469 32.89453125 236.41992188 C26.46042333 243.23406639 18.69156332 246.66167795 9.29296875 247.0703125 C-10.54735592 246.58376503 -27.38809678 233.03208014 -43.03540039 222.22241211 C-43.93353958 221.60285393 -43.93353958 221.60285393 -44.849823 220.97077942 C-46.50052107 219.83005158 -48.14818099 218.684931 -49.7956543 217.53955078 C-52.02336335 216.06508182 -54.16013413 214.80606093 -56.58203125 213.6953125 C-56.99453125 214.2521875 -57.40703125 214.8090625 -57.83203125 215.3828125 C-67.87634326 228.65565336 -78.91406857 238.63135924 -95.83203125 241.34375 C-107.32322766 242.812795 -118.37389522 240.92145161 -127.97265625 234.1953125 C-129.58203125 232.6953125 -129.58203125 232.6953125 -130.58203125 229.6953125 C-131.24203125 229.6953125 -131.90203125 229.6953125 -132.58203125 229.6953125 C-136.65008332 221.48656458 -138.04494486 214.02241388 -135.95703125 204.9921875 C-133.23243274 197.06165971 -127.92037063 191.22910534 -120.51953125 187.3203125 C-114.14834064 184.33686657 -107.96813769 183.33395276 -101.01953125 183.3828125 C-100.23739258 183.38482666 -99.45525391 183.38684082 -98.64941406 183.38891602 C-92.38936366 183.49528846 -86.68019379 184.42077187 -80.59765625 185.94140625 C-77.60509798 186.68954582 -74.62938957 187.22543539 -71.58203125 187.6953125 C-65.41782223 172.25200159 -60.19680155 156.66795055 -55.58203125 140.6953125 C-55.37936646 139.99553284 -55.17670166 139.29575317 -54.96789551 138.57476807 C-48.49314181 116.16584593 -42.53651855 93.62583975 -36.734375 71.03515625 C-36.34921502 69.53694116 -36.34921502 69.53694116 -35.95627403 68.00845909 C-33.33375144 57.80700174 -30.71736849 47.60407611 -28.12614155 37.39461994 C-27.14040242 33.5165873 -26.14836695 29.64018262 -25.15504646 25.76408577 C-24.68803197 23.93521439 -24.22393895 22.10559427 -23.76290703 20.27520561 C-23.12511532 17.74388085 -22.47750439 15.21525871 -21.82763672 12.68701172 C-21.64375113 11.94651298 -21.45986555 11.20601423 -21.27040768 10.44307613 C-20.04887979 5.74566234 -18.82178844 1.24697934 -14.6875 -1.6171875 C-9.72767096 -3.23672351 -4.5878603 -2.31822291 0 0 Z M-121.58203125 198.6953125 C-125.888531 203.90844378 -127.89614928 209.3618238 -127.58203125 216.1328125 C-126.81011499 221.38363819 -124.38201824 225.05757214 -120.58203125 228.6953125 C-115.13426739 231.86492057 -110.58581564 232.49896542 -104.421875 231.26171875 C-91.87158731 227.79585886 -84.72593502 216.3803174 -78.58203125 205.6328125 C-76.97299893 202.81999584 -76.97299893 202.81999584 -76.58203125 199.6953125 C-91.13333912 192.85017063 -107.74085615 186.8501461 -121.58203125 198.6953125 Z " fill="#e5d4ce" transform="translate(136.58203125,2.3046875)"/>
</svg>
